<?xml version="1.0" standalone="no"?>
<!DOCTYPE svg PUBLIC "-//W3C//DTD SVG 20010904//EN"
 "http://www.w3.org/TR/2001/REC-SVG-20010904/DTD/svg10.dtd">
<svg version="1.0" xmlns="http://www.w3.org/2000/svg"
 width="685.000000pt" height="466.000000pt" viewBox="0 0 685.000000 466.000000"
 preserveAspectRatio="xMidYMid meet">

<g transform="translate(0.000000,466.000000) scale(0.100000,-0.100000)"
fill="#000000" stroke="none">
<path d="M4205 4473 c-88 -22 -143 -150 -100 -233 62 -120 235 -44 235 104 0
61 -23 104 -65 122 -36 15 -38 15 -70 7z"/>
<path d="M4007 4063 c-3 -5 -55 -147 -117 -318 -62 -170 -116 -313 -120 -318
-3 -4 -51 1 -106 12 -54 11 -142 25 -194 32 -126 18 -444 18 -540 1 -155 -27
-288 -83 -352 -148 -217 -218 -23 -567 492 -884 78 -48 334 -179 405 -207 17
-6 54 -21 83 -34 59 -25 79 -20 33 7 -17 10 -31 22 -31 26 0 3 36 105 81 225
101 274 142 386 217 593 116 316 108 302 145 292 14 -3 18 -1 13 6 -4 7 -14
12 -22 12 -8 0 -14 4 -14 10 0 5 50 145 110 311 61 166 110 307 110 314 0 7
-39 26 -86 44 -92 33 -100 35 -107 24z m-267 -714 c0 -10 -109 -311 -265 -734
-37 -99 -71 -194 -76 -212 -6 -18 -14 -35 -20 -39 -26 -16 -220 162 -311 286
-82 112 -112 187 -116 291 -3 71 0 95 16 133 62 138 253 243 504 275 98 13
268 13 268 0z"/>
<path d="M3834 1690 c-70 -10 -146 -45 -188 -86 -96 -96 -93 -255 5 -338 56
-48 96 -63 314 -125 78 -22 111 -49 121 -99 6 -27 1 -37 -29 -67 -32 -32 -40
-35 -92 -35 -73 0 -116 25 -144 84 -12 23 -21 48 -21 54 0 14 -29 15 -158 6
-87 -7 -92 -8 -92 -29 0 -52 35 -129 83 -181 42 -46 59 -57 121 -77 95 -30
301 -32 387 -4 161 53 250 207 206 358 -34 116 -118 168 -367 229 -119 29
-137 38 -149 71 -8 25 -6 33 14 57 20 24 30 27 82 27 72 0 109 -21 132 -77
l16 -40 120 7 c66 4 123 10 128 14 11 11 -19 102 -47 139 -34 47 -82 80 -140
97 -63 19 -221 27 -302 15z"/>
<path d="M1625 1667 c-3 -12 -4 -215 -3 -452 l3 -430 375 0 375 0 3 102 3 103
-238 2 -238 3 0 85 0 85 215 5 215 5 0 85 0 85 -218 3 -218 2 3 71 3 71 230 1
230 2 0 95 0 95 -367 2 -368 2 -5 -22z"/>
<path d="M2547 1684 c-4 -4 -7 -209 -7 -456 l0 -449 128 3 127 3 3 243 c1 133
6 242 10 242 4 0 39 -49 79 -108 142 -213 234 -347 248 -364 13 -15 33 -18
140 -18 l125 0 -2 453 -3 452 -125 0 -125 0 -3 -242 c-1 -134 -6 -243 -10
-243 -7 0 -25 25 -235 335 l-102 150 -121 3 c-66 1 -123 -1 -127 -4z"/>
<path d="M4754 1682 c-5 -4 -15 -20 -22 -37 -76 -203 -312 -847 -312 -855 0
-16 255 -13 268 3 6 7 18 40 28 75 l17 62 162 0 162 0 18 -62 c10 -35 23 -69
28 -75 11 -16 277 -19 277 -4 0 6 -42 124 -94 263 -186 500 -225 603 -231 621
-6 15 -23 17 -149 17 -77 0 -146 -4 -152 -8z m151 -252 c9 -14 85 -271 85
-287 0 -10 -23 -13 -95 -13 -69 0 -95 3 -95 12 0 7 11 47 24 88 45 141 56 179
56 194 0 18 15 21 25 6z"/>
<path d="M1795 490 c-3 -5 -17 -10 -31 -10 -17 0 -24 -5 -24 -20 0 -21 24 -28
35 -10 4 6 15 8 24 5 20 -6 46 19 36 35 -8 13 -32 13 -40 0z"/>
<path d="M4112 488 c-7 -7 -22 -13 -35 -13 -12 0 -23 -7 -25 -17 -2 -13 3 -18
17 -18 12 0 21 5 21 11 0 6 8 8 19 4 20 -6 46 18 36 35 -8 13 -18 13 -33 -2z"/>
<path d="M5285 491 c-3 -6 -17 -11 -30 -11 -13 0 -27 -5 -31 -11 -10 -17 12
-33 33 -23 10 4 27 8 38 8 13 1 20 8 20 20 0 22 -20 33 -30 17z"/>
<path d="M2084 449 c-3 -6 -15 -9 -25 -6 -25 7 -48 -30 -24 -39 8 -4 22 -1 30
6 8 7 21 10 30 6 15 -5 39 26 28 38 -10 10 -31 7 -39 -5z"/>
<path d="M2444 423 c19 -128 18 -147 -8 -166 -28 -19 -30 -18 -50 46 -10 32
-27 8 -20 -29 l6 -34 -45 0 c-43 0 -45 1 -54 36 -10 42 -28 42 -28 -1 0 -28
-3 -30 -42 -33 l-41 -3 -11 52 c-13 60 -26 79 -52 79 -36 0 -52 -80 -22 -112
17 -19 16 -19 -22 -16 -36 3 -40 6 -48 41 -5 20 -13 37 -19 37 -5 0 -8 -17 -6
-37 l3 -38 -70 0 -70 0 -7 35 c-4 19 -10 51 -13 71 l-5 36 -39 -36 c-37 -35
-61 -70 -61 -89 0 -19 49 -23 74 -7 23 16 24 15 31 -14 12 -57 -4 -55 526 -54
269 0 492 3 496 6 3 4 1 44 -4 89 -6 55 -6 91 0 105 8 18 6 27 -8 43 -10 11
-22 17 -26 14 -12 -7 -11 -47 0 -60 5 -5 11 -38 13 -74 3 -65 3 -65 -25 -68
-34 -4 -55 11 -59 44 -5 38 -23 27 -21 -12 l3 -35 -42 3 c-40 3 -43 5 -54 43
-15 54 -48 67 -97 36 l-35 -21 -7 41 c-5 27 -3 50 6 66 12 22 11 27 -6 39 -35
25 -48 18 -41 -23z m-634 -107 c0 -17 -27 -29 -35 -16 -4 6 -3 15 0 20 9 15
35 12 35 -4z m304 -12 c4 -9 4 -19 1 -22 -6 -6 -35 18 -35 29 0 16 28 10 34
-7z m476 -38 c0 -18 -22 -26 -71 -26 -43 0 -48 6 -21 26 24 18 92 18 92 0z"/>
<path d="M4487 446 c-3 -8 1 -35 9 -62 19 -64 18 -98 -6 -119 -26 -23 -46 -14
-53 25 -9 40 -29 29 -25 -13 3 -27 -1 -33 -21 -35 -41 -6 -71 7 -71 31 0 12
-4 29 -10 37 -8 13 -10 13 -15 -1 -3 -8 -4 -26 -3 -39 3 -24 0 -25 -59 -28
-54 -3 -63 0 -77 20 -10 14 -16 43 -16 75 0 29 -4 53 -10 53 -5 0 -10 -6 -10
-13 0 -7 -13 -20 -28 -29 -30 -18 -71 -83 -59 -94 9 -9 58 -9 79 0 13 6 20 0
32 -28 9 -22 22 -36 33 -37 24 -1 329 -1 421 0 l72 1 0 58 c0 44 -5 63 -18 75
-24 22 -40 21 -79 -2 l-32 -20 -6 30 c-4 16 -4 48 0 70 5 30 3 44 -6 50 -20
13 -36 11 -42 -5z m-367 -131 c0 -8 -9 -15 -20 -15 -22 0 -27 15 -7 23 21 9
27 7 27 -8z m515 -55 c0 -16 -64 -26 -94 -15 -14 6 -14 8 4 21 26 19 90 15 90
-6z"/>
<path d="M530 435 c-6 -7 -20 -11 -30 -8 -23 6 -39 -22 -22 -39 8 -8 16 -7 28
3 9 7 26 13 37 14 25 0 35 30 13 38 -8 3 -20 0 -26 -8z"/>
<path d="M1314 437 c-3 -10 -1 -30 5 -45 7 -16 13 -55 14 -88 l2 -59 -43 -3
c-41 -3 -48 1 -97 47 -57 54 -82 62 -108 33 -23 -25 -21 -32 6 -32 25 0 67
-26 67 -41 0 -6 -26 -9 -62 -7 l-63 3 -7 42 c-12 74 -39 106 -53 62 -4 -12 -1
-27 9 -38 8 -9 17 -28 18 -42 3 -23 0 -24 -44 -23 -43 0 -48 -2 -48 -23 0 -40
7 -41 353 -35 l97 2 0 48 c0 26 -5 64 -9 86 -6 25 -6 47 2 63 9 20 7 27 -11
45 -19 20 -22 20 -28 5z"/>
<path d="M3746 435 c-3 -9 1 -37 9 -61 8 -25 15 -65 15 -89 l0 -45 -59 0 c-65
0 -78 9 -61 41 9 16 8 24 -6 40 -19 21 -64 25 -82 7 -17 -17 -15 -48 4 -48 9
0 14 -7 12 -17 -6 -30 -41 -21 -50 12 -15 52 -17 88 -7 107 12 22 -5 58 -28
58 -12 0 -14 -6 -9 -27 14 -63 26 -155 20 -164 -3 -5 -19 -9 -35 -9 -26 0 -32
6 -49 45 -22 52 -43 57 -65 15 -22 -43 -19 -76 10 -98 l25 -20 -27 -22 c-22
-18 -37 -21 -73 -17 l-45 5 28 -24 c49 -42 102 -27 142 39 7 12 31 18 85 22
41 4 80 11 87 17 8 6 19 5 34 -2 20 -11 80 -14 232 -11 l47 1 0 43 c0 23 -5
61 -10 84 -6 27 -6 51 0 67 7 19 5 30 -10 48 -16 21 -19 21 -25 6 -4 -9 -2
-32 3 -50 6 -18 13 -59 17 -90 l6 -58 -40 0 c-22 0 -43 5 -46 11 -4 5 -8 46
-9 90 -2 56 -7 85 -18 95 -14 14 -16 14 -22 -1z m-346 -181 c0 -9 -5 -14 -12
-12 -18 6 -21 28 -4 28 9 0 16 -7 16 -16z"/>
<path d="M4924 436 c-3 -9 -1 -29 5 -44 6 -15 12 -54 13 -87 l3 -60 -34 0
c-30 0 -36 4 -46 34 -16 47 -40 62 -59 36 -9 -11 -18 -35 -22 -54 -6 -29 -3
-38 19 -57 l26 -22 -24 -22 c-20 -19 -32 -22 -72 -17 l-48 5 24 -19 c52 -42
108 -34 139 21 12 22 25 30 47 32 17 1 37 2 45 3 33 2 37 13 28 82 -5 37 -7
87 -4 109 4 33 1 45 -14 59 -18 16 -20 16 -26 1z m-84 -190 c-13 -13 -35 7
-25 24 5 8 11 8 21 -1 10 -8 12 -15 4 -23z"/>
<path d="M6216 432 c-4 -12 -2 -29 3 -39 17 -30 29 -131 17 -143 -17 -17 -76
-12 -82 8 -22 68 -41 77 -73 35 -38 -50 -43 -54 -69 -51 -22 3 -28 11 -41 62
-16 60 -36 81 -47 51 -4 -9 3 -34 15 -56 28 -50 20 -63 -34 -56 -35 3 -44 1
-48 -13 -8 -31 7 -39 77 -44 47 -4 79 0 105 10 27 11 45 12 63 5 15 -5 53 -13
86 -17 53 -6 61 -4 70 12 5 11 7 28 5 39 -2 11 -5 57 -7 103 -1 60 -6 87 -18
98 -15 15 -16 15 -22 -4z m-96 -172 c0 -5 -7 -10 -15 -10 -8 0 -15 5 -15 10 0
6 7 10 15 10 8 0 15 -4 15 -10z"/>
<path d="M1387 418 c-7 -20 10 -209 20 -219 12 -12 129 -22 160 -14 19 4 23
12 23 45 0 53 -17 97 -32 82 -9 -9 -8 -18 0 -37 15 -33 5 -37 -74 -33 l-59 3
-2 40 c-8 124 -21 172 -36 133z"/>
<path d="M4386 414 c-8 -21 1 -34 24 -34 22 0 33 23 17 39 -16 16 -34 14 -41
-5z"/>
<path d="M2695 410 c-4 -6 -15 -8 -24 -5 -26 8 -46 -19 -26 -35 12 -10 18 -10
30 0 8 7 21 10 30 6 15 -5 39 26 28 38 -10 9 -31 7 -38 -4z"/>
<path d="M2894 406 c-3 -8 0 -49 6 -91 6 -42 9 -88 6 -101 -4 -13 -2 -24 4
-24 18 0 25 62 16 146 -9 79 -20 103 -32 70z"/>
<path d="M5014 409 c-3 -6 -1 -43 5 -83 6 -39 12 -87 14 -106 l3 -35 12 28 c9
22 10 48 0 118 -11 85 -19 102 -34 78z"/>
<path d="M6305 410 c-3 -5 -1 -38 5 -72 5 -35 11 -83 13 -108 l3 -45 12 30
c11 23 11 47 1 117 -11 82 -19 102 -34 78z"/>
<path d="M5265 356 c-38 -39 -65 -78 -65 -93 0 -16 59 -28 73 -14 18 18 27 13
39 -20 16 -46 82 -60 125 -27 7 6 22 4 41 -6 22 -11 38 -13 61 -6 17 5 47 6
67 3 l35 -6 -3 54 c-2 30 -7 53 -13 51 -5 -1 -10 -11 -10 -22 0 -11 -3 -20 -7
-20 -5 0 -13 0 -19 0 -6 0 -8 9 -4 20 4 11 2 20 -4 20 -6 0 -11 -4 -11 -9 0
-37 -70 -53 -102 -24 -17 15 -19 15 -36 0 -29 -26 -88 -22 -107 7 -9 14 -15
30 -14 38 4 30 -2 88 -8 87 -5 -1 -21 -15 -38 -33z m25 -40 c0 -15 -24 -28
-34 -19 -7 7 13 33 25 33 5 0 9 -6 9 -14z"/>
<path d="M705 351 c-3 -11 3 -34 15 -55 27 -44 19 -58 -31 -55 -21 2 -43 -1
-49 -7 -14 -14 -2 -44 19 -45 9 0 41 -2 71 -4 30 -2 76 -2 103 1 l47 6 0 47
c0 53 -23 99 -35 69 -4 -9 -1 -26 5 -37 13 -26 -1 -34 -52 -29 -30 3 -34 7
-44 48 -18 79 -36 101 -49 61z"/>
<path d="M501 322 c-12 -22 -3 -37 27 -46 12 -4 22 -14 22 -23 0 -12 -8 -14
-35 -10 -29 5 -35 3 -35 -13 0 -34 12 -50 36 -50 62 0 87 90 38 135 -32 30
-40 31 -53 7z"/>
<path d="M3135 303 c-18 -21 -16 -38 4 -38 29 0 21 -25 -12 -39 -45 -18 -53
-44 -32 -107 20 -60 30 -59 16 2 -6 24 -7 47 -3 51 8 8 57 16 100 17 28 1 30
34 2 78 -27 45 -55 59 -75 36z"/>
<path d="M5806 257 c6 -57 6 -58 -32 -93 -34 -32 -42 -36 -78 -31 -38 5 -40 5
-21 -9 50 -37 102 -27 135 28 24 40 27 116 5 144 -14 17 -15 14 -9 -39z"/>
<path d="M834 149 c-3 -6 -15 -9 -25 -6 -21 6 -44 -17 -34 -33 8 -13 35 -13
35 1 0 6 8 8 18 5 24 -8 46 9 39 28 -7 18 -23 21 -33 5z"/>
<path d="M1127 153 c-14 -13 -6 -41 13 -46 13 -3 21 1 26 15 8 26 -22 49 -39
31z"/>
<path d="M1506 143 c-5 -11 0 -22 11 -31 15 -11 20 -10 30 4 9 13 10 21 2 31
-16 18 -36 16 -43 -4z"/>
<path d="M1965 150 c-4 -7 -16 -10 -26 -7 -25 7 -48 -30 -25 -39 8 -3 21 -2
28 3 7 4 22 8 33 8 13 0 20 7 20 19 0 22 -20 32 -30 16z"/>
<path d="M2235 150 c-4 -6 -14 -10 -23 -8 -10 1 -23 -1 -29 -5 -20 -13 -15
-37 7 -37 11 0 20 5 20 10 0 6 10 8 24 4 16 -4 25 -1 30 11 10 28 -14 49 -29
25z"/>
<path d="M2316 143 c-4 -9 0 -23 9 -32 13 -14 17 -14 32 1 13 14 14 20 3 32
-16 21 -36 20 -44 -1z"/>
<path d="M4275 150 c-4 -6 -16 -10 -28 -8 -16 2 -23 -3 -25 -19 -3 -23 16 -32
32 -15 4 4 18 7 29 7 15 0 23 7 25 23 4 23 -21 32 -33 12z"/>
</g>
</svg>
